<svg xmlns="http://www.w3.org/2000/svg" xmlns:xlink="http://www.w3.org/1999/xlink" viewBox="-249 250.8 525 525.2"><g fill="none" stroke="#bfbfbf" stroke-width="15" stroke-miterlimit="10"><path d="M-241.2 360.5h510m-511.9 102h511.9m-510 102h510m-510 102h510"/><path d="M-241.2,258.5h509.9v509.9h-509.9V258.5z" stroke-linejoin="round"/></g><path d="M-241.2 258.5h509.9v102h-509.9v-102z" fill="#bfbfbf"/><g fill="none" stroke="#fff" stroke-width="42"><use xlink:href="#B"/><use xlink:href="#C"/></g><use xlink:href="#B"/><use xlink:href="#C"/><defs ><path id="B" d="M-81.7 691h-60.4l-10.7 44.7h-51.3l63.1-206.4h59.2l63.1 206.3H-71L-81.7 691zm-52.7-35.1h44.7l-22.3-91.4-22.4 91.4z"/><path id="C" d="M89.2 740.7c-20.2 0-35.5-5.2-45.7-15.5s-15.3-24.8-15.3-43.5V610h-33v-32.5h33v-34.2l47-5.7v39.9h50.9l-4.8 32.5H75.2v71.8c0 7.7 1.8 13.3 5.4 16.7s9.3 5.1 17.3 5.1c9.9 0 19.2-2.4 27.7-7.1l15.5 30.1c-15 9.3-32.3 14.1-51.9 14.1z"/></defs></svg>