<svg xmlns="http://www.w3.org/2000/svg" xmlns:xlink="http://www.w3.org/1999/xlink" viewBox="0 0 525 525.2">
	<g fill="none" stroke="#bfbfbf" stroke-width="15" stroke-miterlimit="10"><path d="M7.8 109.7h510M5.9 211.7h511.9m-510 102h510m-510 102h510"/><path d="M7.8 7.7h509.9v509.9H7.8z" stroke-linejoin="round"/></g><path d="M7.8 7.7h509.9v102H7.8z" fill="#bfbfbf"/>
	<g fill="none" stroke="#fff" stroke-width="42"><use xlink:href="#B"/><use xlink:href="#C"/></g><use xlink:href="#B"/><use xlink:href="#C"/>
	<defs ><path id="B" d="M164.3 440.2h-60.4l-10.7 44.7H41.9L105 278.5h59.2l63.1 206.3H175l-10.7-44.6zm-52.7-35.1h44.7L134 313.7l-22.4 91.4z"/><path id="C" d="M335.2 489.9c-20.2 0-35.5-5.2-45.7-15.5s-15.3-24.8-15.3-43.5v-71.7h-33v-32.5h33v-34.2l47-5.7v39.9h50.9l-4.8 32.5h-46.1V431c0 7.7 1.8 13.3 5.4 16.7s9.3 5.1 17.3 5.1c9.9 0 19.2-2.4 27.7-7.1l15.5 30.1c-15 9.3-32.3 14.1-51.9 14.1z"/></defs>
</svg>
